<?xml version="1.0" standalone="no"?>
<!DOCTYPE svg PUBLIC "-//W3C//DTD SVG 20010904//EN"
 "http://www.w3.org/TR/2001/REC-SVG-20010904/DTD/svg10.dtd">
<svg version="1.0" xmlns="http://www.w3.org/2000/svg"
 width="210.000000pt" height="210.000000pt" viewBox="0 0 210.000000 210.000000"
 preserveAspectRatio="xMidYMid meet">
<metadata>
Created by potrace 1.14, written by Peter Selinger 2001-2017
</metadata>
<g transform="translate(0.000000,210.000000) scale(0.100000,-0.100000)"
fill="#000000" stroke="none">
<path d="M10 1550 l0 -440 135 0 135 0 2 168 3 167 158 3 157 3 0 99 0 99
-157 3 -158 3 -3 63 -3 62 176 0 175 0 0 105 0 105 -310 0 -310 0 0 -440z"/>
<path d="M740 1550 l0 -440 310 0 310 0 0 100 0 100 -170 0 -170 0 0 70 0 70
160 0 160 0 0 100 0 100 -160 0 -160 0 0 65 0 65 170 0 170 0 0 105 0 105
-310 0 -310 0 0 -440z"/>
<path d="M1480 1550 l0 -440 305 0 305 0 0 100 0 100 -167 2 -168 3 0 65 0 65
163 3 162 2 0 100 0 100 -162 2 -163 3 -3 63 -3 62 171 0 170 0 0 105 0 105
-305 0 -305 0 0 -440z"/>
<path d="M10 555 l0 -446 223 3 c207 3 225 5 272 26 102 47 144 113 145 226 0
113 -52 189 -143 212 l-29 7 30 27 c88 80 92 237 10 317 -57 55 -101 65 -315
71 l-193 4 0 -447z m320 235 c43 -43 7 -120 -56 -120 l-34 0 0 70 0 70 35 0
c22 0 43 -8 55 -20z m49 -354 c29 -26 36 -72 17 -101 -17 -26 -70 -45 -123
-45 l-33 0 0 86 0 86 60 -4 c38 -3 66 -11 79 -22z"/>
<path d="M925 859 c-91 -77 -170 -149 -175 -159 -6 -11 -10 -131 -10 -294 0
-262 1 -276 19 -286 30 -15 373 -13 394 3 15 10 17 27 15 117 l-3 105 -90 5
-90 5 -3 103 -3 102 65 69 66 70 65 -72 65 -71 0 -211 c0 -151 3 -214 12 -223
19 -19 193 -16 212 4 14 13 16 53 16 283 0 262 -1 269 -22 299 -24 32 -289
261 -326 281 -11 6 -25 11 -31 11 -5 0 -84 -63 -176 -141z"/>
<path d="M1470 895 l0 -105 95 0 95 0 0 -340 0 -340 120 0 120 0 0 340 0 340
95 0 95 0 0 105 0 105 -310 0 -310 0 0 -105z"/>
</g>
</svg>
